<svg width="21" height="21" viewBox="0 0 21 21" fill="none" xmlns="http://www.w3.org/2000/svg">
<path fill-rule="evenodd" clip-rule="evenodd" d="M0.394591 10.1395C0.394591 4.57479 4.92186 0.0485764 10.4859 0.0485764C16.05 0.0485764 20.5773 4.57559 20.5773 10.1395C20.5773 15.7034 16.0509 20.2313 10.4859 20.2313C4.92186 20.2313 0.394591 15.7042 0.394591 10.1395Z" fill="#108EE9"/>
<path fill-rule="evenodd" clip-rule="evenodd" d="M9.00856 13.4532C8.89095 13.4532 8.77334 13.4085 8.6842 13.3188L5.57951 10.2167C5.39995 10.037 5.39995 9.7479 5.57951 9.56812C5.75841 9.38965 6.04896 9.38965 6.22754 9.56812L9.0089 12.347L14.7538 6.60614C14.932 6.42636 15.2229 6.42636 15.4015 6.60614C15.5811 6.78526 15.5811 7.07497 15.4015 7.25409L9.33291 13.3194C9.24312 13.4085 9.12617 13.4532 9.00856 13.4532V13.4532Z" fill="white"/>
</svg>
