<svg width="37" height="35" viewBox="0 0 37 35" fill="none" xmlns="http://www.w3.org/2000/svg">
<mask id="mask0_0_7022" style="mask-type:alpha" maskUnits="userSpaceOnUse" x="0" y="-1" width="37" height="36">
<path fill-rule="evenodd" clip-rule="evenodd" d="M0.626306 17.2231C0.626306 7.71085 8.62221 -0.000364135 18.4857 -0.000364135C28.3491 -0.000364135 36.345 7.71086 36.345 17.2231C36.345 26.7354 28.3491 34.4466 18.4857 34.4466C8.62221 34.4466 0.626306 26.7354 0.626306 17.2231Z" fill="#EA4E0D"/>
</mask>
<g mask="url(#mask0_0_7022)">
<path fill-rule="evenodd" clip-rule="evenodd" d="M14.522 28.0689H9.66937C8.51726 28.0712 7.58072 27.1404 7.57617 25.9882V20.6522C7.57617 20.261 7.89321 19.944 8.28432 19.944C8.67542 19.944 8.99244 20.261 8.99244 20.6522V25.9882C8.99401 26.3605 9.29657 26.6613 9.66886 26.6606H14.522C14.911 26.6606 15.2262 26.9759 15.2262 27.3648C15.2262 27.7537 14.9109 28.0689 14.522 28.0689L14.522 28.0689ZM8.28483 14.5047C7.89462 14.5061 7.57723 14.1907 7.57617 13.8005V8.45993C7.58065 7.30775 8.5172 6.37676 9.66937 6.37915H14.5754C14.9642 6.37915 15.2794 6.69434 15.2794 7.08314C15.2794 7.47196 14.9642 7.78718 14.5754 7.78718L9.66937 7.78715C9.2971 7.78652 8.99457 8.08728 8.99301 8.45955V13.8005C8.99184 14.1905 8.67482 14.5057 8.28487 14.5045L8.28483 14.5047ZM28.6865 14.3966C28.2966 14.3977 27.9795 14.0825 27.9784 13.6926V8.4599C27.9769 8.08762 27.6743 7.78682 27.302 7.78752H22.3366C21.9478 7.78752 21.6326 7.47232 21.6326 7.08353C21.6326 6.69468 21.9478 6.37949 22.3366 6.37949H27.302C28.454 6.37722 29.3904 7.30797 29.395 8.45993V13.6924C29.394 14.0826 29.0767 14.3979 28.6865 14.3966L28.6865 14.3966ZM27.302 28.0689H22.2282C21.8393 28.0689 21.5241 27.7537 21.5241 27.3649C21.5241 26.9761 21.8393 26.6609 22.2282 26.6609H27.302C27.6743 26.6615 27.9768 26.3607 27.9784 25.9885V20.868C27.9783 20.4769 28.2954 20.1598 28.6866 20.1598C29.0778 20.1598 29.3949 20.4769 29.3949 20.868L29.3948 25.9883C29.3902 27.1402 28.4539 28.071 27.302 28.0689L27.302 28.0689Z" fill="white"/>
<path fill-rule="evenodd" clip-rule="evenodd" d="M21.9314 18.4045H19.1997V16.928H21.9314C22.3213 16.928 22.6373 16.6119 22.6373 16.222C22.6373 15.8321 22.3213 15.516 21.9314 15.516H19.9802L22.2702 13.2426C22.4036 13.1107 22.4786 12.9309 22.4786 12.7433C22.4786 12.5558 22.4036 12.376 22.2702 12.2441C21.9917 11.9684 21.5429 11.9684 21.2644 12.2441L18.4373 15.0505L15.6104 12.2441C15.3317 11.9684 14.8831 11.9684 14.6045 12.2441C14.4712 12.376 14.3962 12.5558 14.3962 12.7433C14.3962 12.9309 14.4712 13.1107 14.6045 13.2426L16.8944 15.516H15.0458C14.6558 15.516 14.3398 15.8321 14.3398 16.222C14.3398 16.6119 14.6558 16.928 15.0458 16.928H17.7773V18.4046H15.0458C14.6558 18.4046 14.3398 18.7207 14.3398 19.1106C14.3398 19.5005 14.6558 19.8167 15.0458 19.8167H17.7773V21.7143C17.7772 22.1072 18.0957 22.4256 18.4885 22.4256C18.8813 22.4256 19.1998 22.1072 19.1998 21.7143L19.1997 19.8171H21.9314C22.3214 19.8171 22.6376 19.5008 22.6376 19.1108C22.6376 18.7208 22.3214 18.4045 21.9314 18.4045V18.4045Z" fill="white"/>
</g>
</svg>
