<svg width="31" height="29" viewBox="0 0 31 29" fill="none" xmlns="http://www.w3.org/2000/svg">
<mask id="mask0_0_7006" style="mask-type:luminance" maskUnits="userSpaceOnUse" x="0" y="0" width="31" height="29">
<path fill-rule="evenodd" clip-rule="evenodd" d="M15.2261 0.37588C23.3887 0.37588 30.0057 6.62692 30.0057 14.338C30.0057 22.049 23.3887 28.3001 15.2261 28.3001C7.06359 28.3001 0.446539 22.049 0.446539 14.338C0.446539 6.62693 7.06359 0.37588 15.2261 0.37588Z" fill="white"/>
</mask>
<g mask="url(#mask0_0_7006)">
<path fill-rule="evenodd" clip-rule="evenodd" d="M6.8312 16.1853L15.4785 23.4518L23.7892 16.1845L22.9928 16.1736C22.2149 16.1611 21.5896 15.5293 21.5851 14.7513V5.46056C21.5842 5.18522 21.3607 4.96253 21.0853 4.96266H9.7535C9.47806 4.96239 9.25438 5.18513 9.25348 5.46056V14.7501C9.2491 15.5287 8.6227 16.1608 7.84414 16.1722L6.8312 16.1853ZM15.4842 24.897C15.2744 24.8968 15.0715 24.8223 14.9114 24.6867L5.11204 16.4522C4.82875 16.214 4.72383 15.8246 4.8491 15.4763C4.97435 15.128 5.3033 14.8946 5.67342 14.8915L7.82737 14.864C7.88976 14.8631 7.93997 14.8125 7.94029 14.7501V5.46056C7.94337 4.46156 8.7545 3.65355 9.7535 3.6543H21.0851C22.0843 3.65327 22.8958 4.46144 22.8988 5.46067V14.7509C22.8991 14.8133 22.9492 14.8639 23.0116 14.8649L24.9136 14.8912C25.2803 14.8948 25.6068 15.1244 25.7341 15.4683C25.8614 15.8122 25.7632 16.199 25.4873 16.4405L16.0709 24.6758C15.9087 24.8183 15.7001 24.897 15.4842 24.897L15.4842 24.897Z" fill="white"/>
<path fill-rule="evenodd" clip-rule="evenodd" d="M17.901 14.183H15.9118V13.4274H17.901C18.1381 13.4339 18.3601 13.3111 18.4806 13.1065C18.601 12.9021 18.601 12.6483 18.4806 12.4438C18.3601 12.2393 18.1381 12.1164 17.901 12.1229H16.673L18.308 10.508C18.432 10.3865 18.5017 10.2202 18.5017 10.0466C18.5017 9.87312 18.432 9.70685 18.308 9.58533C18.0489 9.33062 17.6336 9.33062 17.3744 9.58533L15.2164 11.7165L13.0584 9.58472C12.7992 9.33007 12.3839 9.33007 12.1247 9.58472C12.0008 9.70618 11.931 9.87245 11.931 10.046C11.931 10.2196 12.0008 10.3859 12.1247 10.5073L13.7598 12.1223H12.6019C12.3647 12.1158 12.1428 12.2387 12.0223 12.4432C11.9018 12.6477 11.9018 12.9015 12.0223 13.1059C12.1428 13.3105 12.3647 13.4333 12.6019 13.4267H14.5912V14.1823H12.6019C12.3647 14.1758 12.1428 14.2986 12.0223 14.5031C11.9018 14.7076 11.9018 14.9614 12.0223 15.1659C12.1428 15.3704 12.3647 15.4933 12.6019 15.4867H14.5912V17.5533C14.5911 17.9183 14.8868 18.2142 15.2515 18.2142C15.6162 18.2142 15.9119 17.9183 15.9119 17.5533L15.9118 15.4878H17.901C18.2611 15.4878 18.5529 15.1956 18.5529 14.8353C18.5529 14.475 18.2611 14.1829 17.901 14.1829L17.901 14.183Z" fill="white"/>
</g>
</svg>
