<svg width="35" height="32" viewBox="0 0 35 32" fill="none" xmlns="http://www.w3.org/2000/svg">
<path fill-rule="evenodd" clip-rule="evenodd" d="M24.6007 9.06024C24.0137 9.06024 23.5362 8.54933 23.5362 7.92134C23.5362 7.29343 24.0137 6.78262 24.6007 6.78262C25.1878 6.78262 25.6655 7.29342 25.6655 7.92134C25.6655 8.54933 25.1878 9.06024 24.6007 9.06024ZM24.6007 4.5048C23.7479 4.5048 22.9459 4.86028 22.3424 5.50576C21.739 6.15125 21.4067 7.00912 21.4067 7.92133C21.4067 8.83359 21.739 9.6915 22.3424 10.337C22.9459 10.9824 23.7479 11.3379 24.6007 11.3379C25.4536 11.3379 26.2556 10.9824 26.859 10.337C27.4625 9.6915 27.7948 8.83359 27.7948 7.92133C27.7948 7.00911 27.4625 6.15125 26.859 5.50576C26.2556 4.86028 25.4536 4.5048 24.6007 4.5048ZM3.31066 29.6305L11.0095 13.7224L17.1116 22.8046L23.0737 17.63L30.6628 29.6306L3.31066 29.6305ZM2.20945 26.9505L2.20922 26.9504L2.20938 2.29837H32.0202V27.7122L24.1849 15.3274C23.9869 15.0146 23.6567 14.8279 23.3017 14.8279C23.0552 14.8279 22.8233 14.9157 22.6312 15.0818L17.5206 19.5163L11.7249 10.886C11.5232 10.5849 11.2093 10.4122 10.8637 10.4122C10.4629 10.4122 10.0994 10.6483 9.91505 11.0284L2.20939 26.9506L2.20945 26.9505ZM32.0202 0.020752H2.20938C1.03528 0.020752 0.0800781 1.04249 0.0800781 2.29837V29.6305C0.0800781 30.8864 1.03528 31.9081 2.20938 31.9081H32.0202C33.1944 31.9081 34.1497 30.8864 34.1497 29.6305V2.29837C34.1497 1.0425 33.1944 0.020752 32.0202 0.020752Z" fill="white"/>
</svg>
