<svg width="260" height="260" viewBox="0 0 260 260" fill="none" xmlns="http://www.w3.org/2000/svg">
<path fill-rule="evenodd" clip-rule="evenodd" d="M0 260V0H260V260H0Z" fill="white"/>
<path fill-rule="evenodd" clip-rule="evenodd" d="M17 25V17H25V25H17Z" fill="black"/>
<path fill-rule="evenodd" clip-rule="evenodd" d="M25 25V17H32V25H25Z" fill="black"/>
<path fill-rule="evenodd" clip-rule="evenodd" d="M32 25V17H40V25H32Z" fill="black"/>
<path fill-rule="evenodd" clip-rule="evenodd" d="M40 25V17H49V25H40Z" fill="black"/>
<path fill-rule="evenodd" clip-rule="evenodd" d="M49 25V17H56V25H49Z" fill="black"/>
<path fill-rule="evenodd" clip-rule="evenodd" d="M56 25V17H63V25H56Z" fill="black"/>
<path fill-rule="evenodd" clip-rule="evenodd" d="M63 25V17H72V25H63Z" fill="black"/>
<path fill-rule="evenodd" clip-rule="evenodd" d="M95 25V17H103V25H95Z" fill="black"/>
<path fill-rule="evenodd" clip-rule="evenodd" d="M111 25V17H119V25H111Z" fill="black"/>
<path fill-rule="evenodd" clip-rule="evenodd" d="M141 25V17H150V25H141Z" fill="black"/>
<path fill-rule="evenodd" clip-rule="evenodd" d="M165 25V17H173V25H165Z" fill="black"/>
<path fill-rule="evenodd" clip-rule="evenodd" d="M173 25V17H181V25H173Z" fill="black"/>
<path fill-rule="evenodd" clip-rule="evenodd" d="M188 25V17H197V25H188Z" fill="black"/>
<path fill-rule="evenodd" clip-rule="evenodd" d="M197 25V17H204V25H197Z" fill="black"/>
<path fill-rule="evenodd" clip-rule="evenodd" d="M204 25V17H212V25H204Z" fill="black"/>
<path fill-rule="evenodd" clip-rule="evenodd" d="M212 25V17H220V25H212Z" fill="black"/>
<path fill-rule="evenodd" clip-rule="evenodd" d="M220 25V17H227V25H220Z" fill="black"/>
<path fill-rule="evenodd" clip-rule="evenodd" d="M227 25V17H235V25H227Z" fill="black"/>
<path fill-rule="evenodd" clip-rule="evenodd" d="M235 25V17H244V25H235Z" fill="black"/>
<path fill-rule="evenodd" clip-rule="evenodd" d="M17 33V25H25V33H17Z" fill="black"/>
<path fill-rule="evenodd" clip-rule="evenodd" d="M63 33V25H72V33H63Z" fill="black"/>
<path fill-rule="evenodd" clip-rule="evenodd" d="M80 33V25H87V33H80Z" fill="black"/>
<path fill-rule="evenodd" clip-rule="evenodd" d="M95 33V25H103V33H95Z" fill="black"/>
<path fill-rule="evenodd" clip-rule="evenodd" d="M134 33V25H141V33H134Z" fill="black"/>
<path fill-rule="evenodd" clip-rule="evenodd" d="M173 33V25H181V33H173Z" fill="black"/>
<path fill-rule="evenodd" clip-rule="evenodd" d="M188 33V25H197V33H188Z" fill="black"/>
<path fill-rule="evenodd" clip-rule="evenodd" d="M235 33V25H244V33H235Z" fill="black"/>
<path fill-rule="evenodd" clip-rule="evenodd" d="M17 40V33H25V40H17Z" fill="black"/>
<path fill-rule="evenodd" clip-rule="evenodd" d="M32 40V33H40V40H32Z" fill="black"/>
<path fill-rule="evenodd" clip-rule="evenodd" d="M40 40V33H49V40H40Z" fill="black"/>
<path fill-rule="evenodd" clip-rule="evenodd" d="M49 40V33H56V40H49Z" fill="black"/>
<path fill-rule="evenodd" clip-rule="evenodd" d="M63 40V33H72V40H63Z" fill="black"/>
<path fill-rule="evenodd" clip-rule="evenodd" d="M111 40V33H119V40H111Z" fill="black"/>
<path fill-rule="evenodd" clip-rule="evenodd" d="M126 40V33H134V40H126Z" fill="black"/>
<path fill-rule="evenodd" clip-rule="evenodd" d="M157 40V33H165V40H157Z" fill="black"/>
<path fill-rule="evenodd" clip-rule="evenodd" d="M173 40V33H181V40H173Z" fill="black"/>
<path fill-rule="evenodd" clip-rule="evenodd" d="M188 40V33H197V40H188Z" fill="black"/>
<path fill-rule="evenodd" clip-rule="evenodd" d="M204 40V33H212V40H204Z" fill="black"/>
<path fill-rule="evenodd" clip-rule="evenodd" d="M212 40V33H220V40H212Z" fill="black"/>
<path fill-rule="evenodd" clip-rule="evenodd" d="M220 40V33H227V40H220Z" fill="black"/>
<path fill-rule="evenodd" clip-rule="evenodd" d="M235 40V33H244V40H235Z" fill="black"/>
<path fill-rule="evenodd" clip-rule="evenodd" d="M17 49V40H25V49H17Z" fill="black"/>
<path fill-rule="evenodd" clip-rule="evenodd" d="M32 49V40H40V49H32Z" fill="black"/>
<path fill-rule="evenodd" clip-rule="evenodd" d="M40 49V40H49V49H40Z" fill="black"/>
<path fill-rule="evenodd" clip-rule="evenodd" d="M49 49V40H56V49H49Z" fill="black"/>
<path fill-rule="evenodd" clip-rule="evenodd" d="M63 49V40H72V49H63Z" fill="black"/>
<path fill-rule="evenodd" clip-rule="evenodd" d="M80 49V40H87V49H80Z" fill="black"/>
<path fill-rule="evenodd" clip-rule="evenodd" d="M87 49V40H95V49H87Z" fill="black"/>
<path fill-rule="evenodd" clip-rule="evenodd" d="M95 49V40H103V49H95Z" fill="black"/>
<path fill-rule="evenodd" clip-rule="evenodd" d="M111 49V40H119V49H111Z" fill="black"/>
<path fill-rule="evenodd" clip-rule="evenodd" d="M119 49V40H126V49H119Z" fill="black"/>
<path fill-rule="evenodd" clip-rule="evenodd" d="M126 49V40H134V49H126Z" fill="black"/>
<path fill-rule="evenodd" clip-rule="evenodd" d="M134 49V40H141V49H134Z" fill="black"/>
<path fill-rule="evenodd" clip-rule="evenodd" d="M141 49V40H150V49H141Z" fill="black"/>
<path fill-rule="evenodd" clip-rule="evenodd" d="M150 49V40H157V49H150Z" fill="black"/>
<path fill-rule="evenodd" clip-rule="evenodd" d="M157 49V40H165V49H157Z" fill="black"/>
<path fill-rule="evenodd" clip-rule="evenodd" d="M188 49V40H197V49H188Z" fill="black"/>
<path fill-rule="evenodd" clip-rule="evenodd" d="M204 49V40H212V49H204Z" fill="black"/>
<path fill-rule="evenodd" clip-rule="evenodd" d="M212 49V40H220V49H212Z" fill="black"/>
<path fill-rule="evenodd" clip-rule="evenodd" d="M220 49V40H227V49H220Z" fill="black"/>
<path fill-rule="evenodd" clip-rule="evenodd" d="M235 49V40H244V49H235Z" fill="black"/>
<path fill-rule="evenodd" clip-rule="evenodd" d="M17 56V49H25V56H17Z" fill="black"/>
<path fill-rule="evenodd" clip-rule="evenodd" d="M32 56V49H40V56H32Z" fill="black"/>
<path fill-rule="evenodd" clip-rule="evenodd" d="M40 56V49H49V56H40Z" fill="black"/>
<path fill-rule="evenodd" clip-rule="evenodd" d="M49 56V49H56V56H49Z" fill="black"/>
<path fill-rule="evenodd" clip-rule="evenodd" d="M63 56V49H72V56H63Z" fill="black"/>
<path fill-rule="evenodd" clip-rule="evenodd" d="M87 56V49H95V56H87Z" fill="black"/>
<path fill-rule="evenodd" clip-rule="evenodd" d="M119 56V49H126V56H119Z" fill="black"/>
<path fill-rule="evenodd" clip-rule="evenodd" d="M141 56V49H150V56H141Z" fill="black"/>
<path fill-rule="evenodd" clip-rule="evenodd" d="M150 56V49H157V56H150Z" fill="black"/>
<path fill-rule="evenodd" clip-rule="evenodd" d="M157 56V49H165V56H157Z" fill="black"/>
<path fill-rule="evenodd" clip-rule="evenodd" d="M165 56V49H173V56H165Z" fill="black"/>
<path fill-rule="evenodd" clip-rule="evenodd" d="M173 56V49H181V56H173Z" fill="black"/>
<path fill-rule="evenodd" clip-rule="evenodd" d="M188 56V49H197V56H188Z" fill="black"/>
<path fill-rule="evenodd" clip-rule="evenodd" d="M204 56V49H212V56H204Z" fill="black"/>
<path fill-rule="evenodd" clip-rule="evenodd" d="M212 56V49H220V56H212Z" fill="black"/>
<path fill-rule="evenodd" clip-rule="evenodd" d="M220 56V49H227V56H220Z" fill="black"/>
<path fill-rule="evenodd" clip-rule="evenodd" d="M235 56V49H244V56H235Z" fill="black"/>
<path fill-rule="evenodd" clip-rule="evenodd" d="M17 64V56H25V64H17Z" fill="black"/>
<path fill-rule="evenodd" clip-rule="evenodd" d="M63 64V56H72V64H63Z" fill="black"/>
<path fill-rule="evenodd" clip-rule="evenodd" d="M80 64V56H87V64H80Z" fill="black"/>
<path fill-rule="evenodd" clip-rule="evenodd" d="M87 64V56H95V64H87Z" fill="black"/>
<path fill-rule="evenodd" clip-rule="evenodd" d="M103 64V56H111V64H103Z" fill="black"/>
<path fill-rule="evenodd" clip-rule="evenodd" d="M111 64V56H119V64H111Z" fill="black"/>
<path fill-rule="evenodd" clip-rule="evenodd" d="M119 64V56H126V64H119Z" fill="black"/>
<path fill-rule="evenodd" clip-rule="evenodd" d="M126 64V56H134V64H126Z" fill="black"/>
<path fill-rule="evenodd" clip-rule="evenodd" d="M134 64V56H141V64H134Z" fill="black"/>
<path fill-rule="evenodd" clip-rule="evenodd" d="M150 64V56H157V64H150Z" fill="black"/>
<path fill-rule="evenodd" clip-rule="evenodd" d="M188 64V56H197V64H188Z" fill="black"/>
<path fill-rule="evenodd" clip-rule="evenodd" d="M235 64V56H244V64H235Z" fill="black"/>
<path fill-rule="evenodd" clip-rule="evenodd" d="M17 72V64H25V72H17Z" fill="black"/>
<path fill-rule="evenodd" clip-rule="evenodd" d="M25 72V64H32V72H25Z" fill="black"/>
<path fill-rule="evenodd" clip-rule="evenodd" d="M32 72V64H40V72H32Z" fill="black"/>
<path fill-rule="evenodd" clip-rule="evenodd" d="M40 72V64H49V72H40Z" fill="black"/>
<path fill-rule="evenodd" clip-rule="evenodd" d="M49 72V64H56V72H49Z" fill="black"/>
<path fill-rule="evenodd" clip-rule="evenodd" d="M56 72V64H63V72H56Z" fill="black"/>
<path fill-rule="evenodd" clip-rule="evenodd" d="M63 72V64H72V72H63Z" fill="black"/>
<path fill-rule="evenodd" clip-rule="evenodd" d="M80 72V64H87V72H80Z" fill="black"/>
<path fill-rule="evenodd" clip-rule="evenodd" d="M95 72V64H103V72H95Z" fill="black"/>
<path fill-rule="evenodd" clip-rule="evenodd" d="M111 72V64H119V72H111Z" fill="black"/>
<path fill-rule="evenodd" clip-rule="evenodd" d="M126 72V64H134V72H126Z" fill="black"/>
<path fill-rule="evenodd" clip-rule="evenodd" d="M141 72V64H150V72H141Z" fill="black"/>
<path fill-rule="evenodd" clip-rule="evenodd" d="M157 72V64H165V72H157Z" fill="black"/>
<path fill-rule="evenodd" clip-rule="evenodd" d="M173 72V64H181V72H173Z" fill="black"/>
<path fill-rule="evenodd" clip-rule="evenodd" d="M188 72V64H197V72H188Z" fill="black"/>
<path fill-rule="evenodd" clip-rule="evenodd" d="M242 33V25H250V33H242Z" fill="black"/>
<path fill-rule="evenodd" clip-rule="evenodd" d="M204 72V64H212V72H204Z" fill="black"/>
<path fill-rule="evenodd" clip-rule="evenodd" d="M212 72V64H220V72H212Z" fill="black"/>
<path fill-rule="evenodd" clip-rule="evenodd" d="M220 72V64H227V72H220Z" fill="black"/>
<path fill-rule="evenodd" clip-rule="evenodd" d="M227 72V64H235V72H227Z" fill="black"/>
<path fill-rule="evenodd" clip-rule="evenodd" d="M235 72V64H244V72H235Z" fill="black"/>
<path fill-rule="evenodd" clip-rule="evenodd" d="M87 80V72H95V80H87Z" fill="black"/>
<path fill-rule="evenodd" clip-rule="evenodd" d="M95 80V72H103V80H95Z" fill="black"/>
<path fill-rule="evenodd" clip-rule="evenodd" d="M103 80V72H111V80H103Z" fill="black"/>
<path fill-rule="evenodd" clip-rule="evenodd" d="M134 80V72H141V80H134Z" fill="black"/>
<path fill-rule="evenodd" clip-rule="evenodd" d="M141 80V72H150V80H141Z" fill="black"/>
<path fill-rule="evenodd" clip-rule="evenodd" d="M165 80V72H173V80H165Z" fill="black"/>
<path fill-rule="evenodd" clip-rule="evenodd" d="M173 80V72H181V80H173Z" fill="black"/>
<path fill-rule="evenodd" clip-rule="evenodd" d="M17 87V80H25V87H17Z" fill="black"/>
<path fill-rule="evenodd" clip-rule="evenodd" d="M25 87V80H32V87H25Z" fill="black"/>
<path fill-rule="evenodd" clip-rule="evenodd" d="M32 87V80H40V87H32Z" fill="black"/>
<path fill-rule="evenodd" clip-rule="evenodd" d="M40 87V80H49V87H40Z" fill="black"/>
<path fill-rule="evenodd" clip-rule="evenodd" d="M49 87V80H56V87H49Z" fill="black"/>
<path fill-rule="evenodd" clip-rule="evenodd" d="M63 87V80H72V87H63Z" fill="black"/>
<path fill-rule="evenodd" clip-rule="evenodd" d="M72 87V80H80V87H72Z" fill="black"/>
<path fill-rule="evenodd" clip-rule="evenodd" d="M80 87V80H87V87H80Z" fill="black"/>
<path fill-rule="evenodd" clip-rule="evenodd" d="M87 87V80H95V87H87Z" fill="black"/>
<path fill-rule="evenodd" clip-rule="evenodd" d="M103 87V80H111V87H103Z" fill="black"/>
<path fill-rule="evenodd" clip-rule="evenodd" d="M134 87V80H141V87H134Z" fill="black"/>
<path fill-rule="evenodd" clip-rule="evenodd" d="M150 87V80H157V87H150Z" fill="black"/>
<path fill-rule="evenodd" clip-rule="evenodd" d="M165 87V80H173V87H165Z" fill="black"/>
<path fill-rule="evenodd" clip-rule="evenodd" d="M181 87V80H188V87H181Z" fill="black"/>
<path fill-rule="evenodd" clip-rule="evenodd" d="M197 87V80H204V87H197Z" fill="black"/>
<path fill-rule="evenodd" clip-rule="evenodd" d="M212 87V80H220V87H212Z" fill="black"/>
<path fill-rule="evenodd" clip-rule="evenodd" d="M227 87V80H235V87H227Z" fill="black"/>
<path fill-rule="evenodd" clip-rule="evenodd" d="M25 96V87H32V96H25Z" fill="black"/>
<path fill-rule="evenodd" clip-rule="evenodd" d="M32 96V87H40V96H32Z" fill="black"/>
<path fill-rule="evenodd" clip-rule="evenodd" d="M56 96V87H63V96H56Z" fill="black"/>
<path fill-rule="evenodd" clip-rule="evenodd" d="M72 96V87H80V96H72Z" fill="black"/>
<path fill-rule="evenodd" clip-rule="evenodd" d="M80 96V87H87V96H80Z" fill="black"/>
<path fill-rule="evenodd" clip-rule="evenodd" d="M95 96V87H103V96H95Z" fill="black"/>
<path fill-rule="evenodd" clip-rule="evenodd" d="M111 96V87H119V96H111Z" fill="black"/>
<path fill-rule="evenodd" clip-rule="evenodd" d="M119 96V87H126V96H119Z" fill="black"/>
<path fill-rule="evenodd" clip-rule="evenodd" d="M141 96V87H150V96H141Z" fill="black"/>
<path fill-rule="evenodd" clip-rule="evenodd" d="M165 96V87H173V96H165Z" fill="black"/>
<path fill-rule="evenodd" clip-rule="evenodd" d="M173 96V87H181V96H173Z" fill="black"/>
<path fill-rule="evenodd" clip-rule="evenodd" d="M181 96V87H188V96H181Z" fill="black"/>
<path fill-rule="evenodd" clip-rule="evenodd" d="M188 96V87H197V96H188Z" fill="black"/>
<path fill-rule="evenodd" clip-rule="evenodd" d="M197 96V87H204V96H197Z" fill="black"/>
<path fill-rule="evenodd" clip-rule="evenodd" d="M204 96V87H212V96H204Z" fill="black"/>
<path fill-rule="evenodd" clip-rule="evenodd" d="M235 96V87H244V96H235Z" fill="black"/>
<path fill-rule="evenodd" clip-rule="evenodd" d="M17 103V96H25V103H17Z" fill="black"/>
<path fill-rule="evenodd" clip-rule="evenodd" d="M25 103V96H32V103H25Z" fill="black"/>
<path fill-rule="evenodd" clip-rule="evenodd" d="M40 103V96H49V103H40Z" fill="black"/>
<path fill-rule="evenodd" clip-rule="evenodd" d="M63 103V96H72V103H63Z" fill="black"/>
<path fill-rule="evenodd" clip-rule="evenodd" d="M95 103V96H103V103H95Z" fill="black"/>
<path fill-rule="evenodd" clip-rule="evenodd" d="M119 103V96H126V103H119Z" fill="black"/>
<path fill-rule="evenodd" clip-rule="evenodd" d="M126 103V96H134V103H126Z" fill="black"/>
<path fill-rule="evenodd" clip-rule="evenodd" d="M134 103V96H141V103H134Z" fill="black"/>
<path fill-rule="evenodd" clip-rule="evenodd" d="M150 103V96H157V103H150Z" fill="black"/>
<path fill-rule="evenodd" clip-rule="evenodd" d="M157 103V96H165V103H157Z" fill="black"/>
<path fill-rule="evenodd" clip-rule="evenodd" d="M181 103V96H188V103H181Z" fill="black"/>
<path fill-rule="evenodd" clip-rule="evenodd" d="M17 111V103H25V111H17Z" fill="black"/>
<path fill-rule="evenodd" clip-rule="evenodd" d="M32 111V103H40V111H32Z" fill="black"/>
<path fill-rule="evenodd" clip-rule="evenodd" d="M40 111V103H49V111H40Z" fill="black"/>
<path fill-rule="evenodd" clip-rule="evenodd" d="M56 111V103H63V111H56Z" fill="black"/>
<path fill-rule="evenodd" clip-rule="evenodd" d="M72 111V103H80V111H72Z" fill="black"/>
<path fill-rule="evenodd" clip-rule="evenodd" d="M80 111V103H87V111H80Z" fill="black"/>
<path fill-rule="evenodd" clip-rule="evenodd" d="M111 111V103H119V111H111Z" fill="black"/>
<path fill-rule="evenodd" clip-rule="evenodd" d="M119 111V103H126V111H119Z" fill="black"/>
<path fill-rule="evenodd" clip-rule="evenodd" d="M141 111V103H150V111H141Z" fill="black"/>
<path fill-rule="evenodd" clip-rule="evenodd" d="M157 111V103H165V111H157Z" fill="black"/>
<path fill-rule="evenodd" clip-rule="evenodd" d="M165 111V103H173V111H165Z" fill="black"/>
<path fill-rule="evenodd" clip-rule="evenodd" d="M173 111V103H181V111H173Z" fill="black"/>
<path fill-rule="evenodd" clip-rule="evenodd" d="M181 111V103H188V111H181Z" fill="black"/>
<path fill-rule="evenodd" clip-rule="evenodd" d="M188 111V103H197V111H188Z" fill="black"/>
<path fill-rule="evenodd" clip-rule="evenodd" d="M197 111V103H204V111H197Z" fill="black"/>
<path fill-rule="evenodd" clip-rule="evenodd" d="M212 111V103H220V111H212Z" fill="black"/>
<path fill-rule="evenodd" clip-rule="evenodd" d="M227 111V103H235V111H227Z" fill="black"/>
<path fill-rule="evenodd" clip-rule="evenodd" d="M25 119V111H32V119H25Z" fill="black"/>
<path fill-rule="evenodd" clip-rule="evenodd" d="M32 119V111H40V119H32Z" fill="black"/>
<path fill-rule="evenodd" clip-rule="evenodd" d="M56 119V111H63V119H56Z" fill="black"/>
<path fill-rule="evenodd" clip-rule="evenodd" d="M63 119V111H72V119H63Z" fill="black"/>
<path fill-rule="evenodd" clip-rule="evenodd" d="M72 119V111H80V119H72Z" fill="black"/>
<path fill-rule="evenodd" clip-rule="evenodd" d="M80 119V111H87V119H80Z" fill="black"/>
<path fill-rule="evenodd" clip-rule="evenodd" d="M87 119V111H95V119H87Z" fill="black"/>
<path fill-rule="evenodd" clip-rule="evenodd" d="M95 119V111H103V119H95Z" fill="black"/>
<path fill-rule="evenodd" clip-rule="evenodd" d="M111 119V111H119V119H111Z" fill="black"/>
<path fill-rule="evenodd" clip-rule="evenodd" d="M126 119V111H134V119H126Z" fill="black"/>
<path fill-rule="evenodd" clip-rule="evenodd" d="M150 119V111H157V119H150Z" fill="black"/>
<path fill-rule="evenodd" clip-rule="evenodd" d="M165 119V111H173V119H165Z" fill="black"/>
<path fill-rule="evenodd" clip-rule="evenodd" d="M212 119V111H220V119H212Z" fill="black"/>
<path fill-rule="evenodd" clip-rule="evenodd" d="M220 119V111H227V119H220Z" fill="black"/>
<path fill-rule="evenodd" clip-rule="evenodd" d="M40 127V119H49V127H40Z" fill="black"/>
<path fill-rule="evenodd" clip-rule="evenodd" d="M87 127V119H95V127H87Z" fill="black"/>
<path fill-rule="evenodd" clip-rule="evenodd" d="M141 127V119H150V127H141Z" fill="black"/>
<path fill-rule="evenodd" clip-rule="evenodd" d="M157 127V119H165V127H157Z" fill="black"/>
<path fill-rule="evenodd" clip-rule="evenodd" d="M165 127V119H173V127H165Z" fill="black"/>
<path fill-rule="evenodd" clip-rule="evenodd" d="M181 127V119H188V127H181Z" fill="black"/>
<path fill-rule="evenodd" clip-rule="evenodd" d="M188 127V119H197V127H188Z" fill="black"/>
<path fill-rule="evenodd" clip-rule="evenodd" d="M204 127V119H212V127H204Z" fill="black"/>
<path fill-rule="evenodd" clip-rule="evenodd" d="M235 127V119H244V127H235Z" fill="black"/>
<path fill-rule="evenodd" clip-rule="evenodd" d="M25 134V127H32V134H25Z" fill="black"/>
<path fill-rule="evenodd" clip-rule="evenodd" d="M40 134V127H49V134H40Z" fill="black"/>
<path fill-rule="evenodd" clip-rule="evenodd" d="M56 134V127H63V134H56Z" fill="black"/>
<path fill-rule="evenodd" clip-rule="evenodd" d="M63 134V127H72V134H63Z" fill="black"/>
<path fill-rule="evenodd" clip-rule="evenodd" d="M72 134V127H80V134H72Z" fill="black"/>
<path fill-rule="evenodd" clip-rule="evenodd" d="M80 134V127H87V134H80Z" fill="black"/>
<path fill-rule="evenodd" clip-rule="evenodd" d="M103 134V127H111V134H103Z" fill="black"/>
<path fill-rule="evenodd" clip-rule="evenodd" d="M111 134V127H119V134H111Z" fill="black"/>
<path fill-rule="evenodd" clip-rule="evenodd" d="M134 134V127H141V134H134Z" fill="black"/>
<path fill-rule="evenodd" clip-rule="evenodd" d="M141 134V127H150V134H141Z" fill="black"/>
<path fill-rule="evenodd" clip-rule="evenodd" d="M157 134V127H165V134H157Z" fill="black"/>
<path fill-rule="evenodd" clip-rule="evenodd" d="M173 134V127H181V134H173Z" fill="black"/>
<path fill-rule="evenodd" clip-rule="evenodd" d="M197 134V127H204V134H197Z" fill="black"/>
<path fill-rule="evenodd" clip-rule="evenodd" d="M212 134V127H220V134H212Z" fill="black"/>
<path fill-rule="evenodd" clip-rule="evenodd" d="M220 134V127H227V134H220Z" fill="black"/>
<path fill-rule="evenodd" clip-rule="evenodd" d="M25 141V134H32V141H25Z" fill="black"/>
<path fill-rule="evenodd" clip-rule="evenodd" d="M32 141V134H40V141H32Z" fill="black"/>
<path fill-rule="evenodd" clip-rule="evenodd" d="M56 141V134H63V141H56Z" fill="black"/>
<path fill-rule="evenodd" clip-rule="evenodd" d="M72 141V134H80V141H72Z" fill="black"/>
<path fill-rule="evenodd" clip-rule="evenodd" d="M103 141V134H111V141H103Z" fill="black"/>
<path fill-rule="evenodd" clip-rule="evenodd" d="M126 141V134H134V141H126Z" fill="black"/>
<path fill-rule="evenodd" clip-rule="evenodd" d="M134 141V134H141V141H134Z" fill="black"/>
<path fill-rule="evenodd" clip-rule="evenodd" d="M141 141V134H150V141H141Z" fill="black"/>
<path fill-rule="evenodd" clip-rule="evenodd" d="M173 141V134H181V141H173Z" fill="black"/>
<path fill-rule="evenodd" clip-rule="evenodd" d="M197 141V134H204V141H197Z" fill="black"/>
<path fill-rule="evenodd" clip-rule="evenodd" d="M204 141V134H212V141H204Z" fill="black"/>
<path fill-rule="evenodd" clip-rule="evenodd" d="M227 141V134H235V141H227Z" fill="black"/>
<path fill-rule="evenodd" clip-rule="evenodd" d="M17 150V141H25V150H17Z" fill="black"/>
<path fill-rule="evenodd" clip-rule="evenodd" d="M25 150V141H32V150H25Z" fill="black"/>
<path fill-rule="evenodd" clip-rule="evenodd" d="M63 150V141H72V150H63Z" fill="black"/>
<path fill-rule="evenodd" clip-rule="evenodd" d="M87 150V141H95V150H87Z" fill="black"/>
<path fill-rule="evenodd" clip-rule="evenodd" d="M103 150V141H111V150H103Z" fill="black"/>
<path fill-rule="evenodd" clip-rule="evenodd" d="M134 150V141H141V150H134Z" fill="black"/>
<path fill-rule="evenodd" clip-rule="evenodd" d="M150 150V141H157V150H150Z" fill="black"/>
<path fill-rule="evenodd" clip-rule="evenodd" d="M197 150V141H204V150H197Z" fill="black"/>
<path fill-rule="evenodd" clip-rule="evenodd" d="M212 150V141H220V150H212Z" fill="black"/>
<path fill-rule="evenodd" clip-rule="evenodd" d="M220 150V141H227V150H220Z" fill="black"/>
<path fill-rule="evenodd" clip-rule="evenodd" d="M17 157V150H25V157H17Z" fill="black"/>
<path fill-rule="evenodd" clip-rule="evenodd" d="M25 157V150H32V157H25Z" fill="black"/>
<path fill-rule="evenodd" clip-rule="evenodd" d="M40 157V150H49V157H40Z" fill="black"/>
<path fill-rule="evenodd" clip-rule="evenodd" d="M80 157V150H87V157H80Z" fill="black"/>
<path fill-rule="evenodd" clip-rule="evenodd" d="M87 157V150H95V157H87Z" fill="black"/>
<path fill-rule="evenodd" clip-rule="evenodd" d="M111 157V150H119V157H111Z" fill="black"/>
<path fill-rule="evenodd" clip-rule="evenodd" d="M119 157V150H126V157H119Z" fill="black"/>
<path fill-rule="evenodd" clip-rule="evenodd" d="M126 157V150H134V157H126Z" fill="black"/>
<path fill-rule="evenodd" clip-rule="evenodd" d="M141 157V150H150V157H141Z" fill="black"/>
<path fill-rule="evenodd" clip-rule="evenodd" d="M150 157V150H157V157H150Z" fill="black"/>
<path fill-rule="evenodd" clip-rule="evenodd" d="M157 157V150H165V157H157Z" fill="black"/>
<path fill-rule="evenodd" clip-rule="evenodd" d="M165 157V150H173V157H165Z" fill="black"/>
<path fill-rule="evenodd" clip-rule="evenodd" d="M173 157V150H181V157H173Z" fill="black"/>
<path fill-rule="evenodd" clip-rule="evenodd" d="M181 157V150H188V157H181Z" fill="black"/>
<path fill-rule="evenodd" clip-rule="evenodd" d="M188 157V150H197V157H188Z" fill="black"/>
<path fill-rule="evenodd" clip-rule="evenodd" d="M197 157V150H204V157H197Z" fill="black"/>
<path fill-rule="evenodd" clip-rule="evenodd" d="M204 157V150H212V157H204Z" fill="black"/>
<path fill-rule="evenodd" clip-rule="evenodd" d="M220 157V150H227V157H220Z" fill="black"/>
<path fill-rule="evenodd" clip-rule="evenodd" d="M235 157V150H244V157H235Z" fill="black"/>
<path fill-rule="evenodd" clip-rule="evenodd" d="M17 165V157H25V165H17Z" fill="black"/>
<path fill-rule="evenodd" clip-rule="evenodd" d="M32 165V157H40V165H32Z" fill="black"/>
<path fill-rule="evenodd" clip-rule="evenodd" d="M40 165V157H49V165H40Z" fill="black"/>
<path fill-rule="evenodd" clip-rule="evenodd" d="M63 165V157H72V165H63Z" fill="black"/>
<path fill-rule="evenodd" clip-rule="evenodd" d="M72 165V157H80V165H72Z" fill="black"/>
<path fill-rule="evenodd" clip-rule="evenodd" d="M95 165V157H103V165H95Z" fill="black"/>
<path fill-rule="evenodd" clip-rule="evenodd" d="M119 165V157H126V165H119Z" fill="black"/>
<path fill-rule="evenodd" clip-rule="evenodd" d="M126 165V157H134V165H126Z" fill="black"/>
<path fill-rule="evenodd" clip-rule="evenodd" d="M134 165V157H141V165H134Z" fill="black"/>
<path fill-rule="evenodd" clip-rule="evenodd" d="M173 165V157H181V165H173Z" fill="black"/>
<path fill-rule="evenodd" clip-rule="evenodd" d="M181 165V157H188V165H181Z" fill="black"/>
<path fill-rule="evenodd" clip-rule="evenodd" d="M188 165V157H197V165H188Z" fill="black"/>
<path fill-rule="evenodd" clip-rule="evenodd" d="M197 165V157H204V165H197Z" fill="black"/>
<path fill-rule="evenodd" clip-rule="evenodd" d="M220 165V157H227V165H220Z" fill="black"/>
<path fill-rule="evenodd" clip-rule="evenodd" d="M17 173V165H25V173H17Z" fill="black"/>
<path fill-rule="evenodd" clip-rule="evenodd" d="M49 173V165H56V173H49Z" fill="black"/>
<path fill-rule="evenodd" clip-rule="evenodd" d="M56 173V165H63V173H56Z" fill="black"/>
<path fill-rule="evenodd" clip-rule="evenodd" d="M72 173V165H80V173H72Z" fill="black"/>
<path fill-rule="evenodd" clip-rule="evenodd" d="M87 173V165H95V173H87Z" fill="black"/>
<path fill-rule="evenodd" clip-rule="evenodd" d="M95 173V165H103V173H95Z" fill="black"/>
<path fill-rule="evenodd" clip-rule="evenodd" d="M111 173V165H119V173H111Z" fill="black"/>
<path fill-rule="evenodd" clip-rule="evenodd" d="M119 173V165H126V173H119Z" fill="black"/>
<path fill-rule="evenodd" clip-rule="evenodd" d="M165 173V165H173V173H165Z" fill="black"/>
<path fill-rule="evenodd" clip-rule="evenodd" d="M181 173V165H188V173H181Z" fill="black"/>
<path fill-rule="evenodd" clip-rule="evenodd" d="M197 173V165H204V173H197Z" fill="black"/>
<path fill-rule="evenodd" clip-rule="evenodd" d="M204 173V165H212V173H204Z" fill="black"/>
<path fill-rule="evenodd" clip-rule="evenodd" d="M227 173V165H235V173H227Z" fill="black"/>
<path fill-rule="evenodd" clip-rule="evenodd" d="M17 181V173H25V181H17Z" fill="black"/>
<path fill-rule="evenodd" clip-rule="evenodd" d="M32 181V173H40V181H32Z" fill="black"/>
<path fill-rule="evenodd" clip-rule="evenodd" d="M49 181V173H56V181H49Z" fill="black"/>
<path fill-rule="evenodd" clip-rule="evenodd" d="M63 181V173H72V181H63Z" fill="black"/>
<path fill-rule="evenodd" clip-rule="evenodd" d="M72 181V173H80V181H72Z" fill="black"/>
<path fill-rule="evenodd" clip-rule="evenodd" d="M80 181V173H87V181H80Z" fill="black"/>
<path fill-rule="evenodd" clip-rule="evenodd" d="M95 181V173H103V181H95Z" fill="black"/>
<path fill-rule="evenodd" clip-rule="evenodd" d="M111 181V173H119V181H111Z" fill="black"/>
<path fill-rule="evenodd" clip-rule="evenodd" d="M126 181V173H134V181H126Z" fill="black"/>
<path fill-rule="evenodd" clip-rule="evenodd" d="M150 181V173H157V181H150Z" fill="black"/>
<path fill-rule="evenodd" clip-rule="evenodd" d="M173 181V173H181V181H173Z" fill="black"/>
<path fill-rule="evenodd" clip-rule="evenodd" d="M181 181V173H188V181H181Z" fill="black"/>
<path fill-rule="evenodd" clip-rule="evenodd" d="M188 181V173H197V181H188Z" fill="black"/>
<path fill-rule="evenodd" clip-rule="evenodd" d="M197 181V173H204V181H197Z" fill="black"/>
<path fill-rule="evenodd" clip-rule="evenodd" d="M204 181V173H212V181H204Z" fill="black"/>
<path fill-rule="evenodd" clip-rule="evenodd" d="M220 181V173H227V181H220Z" fill="black"/>
<path fill-rule="evenodd" clip-rule="evenodd" d="M227 181V173H235V181H227Z" fill="black"/>
<path fill-rule="evenodd" clip-rule="evenodd" d="M235 181V173H244V181H235Z" fill="black"/>
<path fill-rule="evenodd" clip-rule="evenodd" d="M80 188V181H87V188H80Z" fill="black"/>
<path fill-rule="evenodd" clip-rule="evenodd" d="M87 188V181H95V188H87Z" fill="black"/>
<path fill-rule="evenodd" clip-rule="evenodd" d="M95 188V181H103V188H95Z" fill="black"/>
<path fill-rule="evenodd" clip-rule="evenodd" d="M141 188V181H150V188H141Z" fill="black"/>
<path fill-rule="evenodd" clip-rule="evenodd" d="M150 188V181H157V188H150Z" fill="black"/>
<path fill-rule="evenodd" clip-rule="evenodd" d="M157 188V181H165V188H157Z" fill="black"/>
<path fill-rule="evenodd" clip-rule="evenodd" d="M173 188V181H181V188H173Z" fill="black"/>
<path fill-rule="evenodd" clip-rule="evenodd" d="M204 188V181H212V188H204Z" fill="black"/>
<path fill-rule="evenodd" clip-rule="evenodd" d="M212 188V181H220V188H212Z" fill="black"/>
<path fill-rule="evenodd" clip-rule="evenodd" d="M220 188V181H227V188H220Z" fill="black"/>
<path fill-rule="evenodd" clip-rule="evenodd" d="M227 188V181H235V188H227Z" fill="black"/>
<path fill-rule="evenodd" clip-rule="evenodd" d="M235 188V181H244V188H235Z" fill="black"/>
<path fill-rule="evenodd" clip-rule="evenodd" d="M17 197V188H25V197H17Z" fill="black"/>
<path fill-rule="evenodd" clip-rule="evenodd" d="M25 197V188H32V197H25Z" fill="black"/>
<path fill-rule="evenodd" clip-rule="evenodd" d="M32 197V188H40V197H32Z" fill="black"/>
<path fill-rule="evenodd" clip-rule="evenodd" d="M40 197V188H49V197H40Z" fill="black"/>
<path fill-rule="evenodd" clip-rule="evenodd" d="M49 197V188H56V197H49Z" fill="black"/>
<path fill-rule="evenodd" clip-rule="evenodd" d="M56 197V188H63V197H56Z" fill="black"/>
<path fill-rule="evenodd" clip-rule="evenodd" d="M63 197V188H72V197H63Z" fill="black"/>
<path fill-rule="evenodd" clip-rule="evenodd" d="M80 197V188H87V197H80Z" fill="black"/>
<path fill-rule="evenodd" clip-rule="evenodd" d="M95 197V188H103V197H95Z" fill="black"/>
<path fill-rule="evenodd" clip-rule="evenodd" d="M103 197V188H111V197H103Z" fill="black"/>
<path fill-rule="evenodd" clip-rule="evenodd" d="M111 197V188H119V197H111Z" fill="black"/>
<path fill-rule="evenodd" clip-rule="evenodd" d="M134 197V188H141V197H134Z" fill="black"/>
<path fill-rule="evenodd" clip-rule="evenodd" d="M141 197V188H150V197H141Z" fill="black"/>
<path fill-rule="evenodd" clip-rule="evenodd" d="M150 197V188H157V197H150Z" fill="black"/>
<path fill-rule="evenodd" clip-rule="evenodd" d="M157 197V188H165V197H157Z" fill="black"/>
<path fill-rule="evenodd" clip-rule="evenodd" d="M165 197V188H173V197H165Z" fill="black"/>
<path fill-rule="evenodd" clip-rule="evenodd" d="M173 197V188H181V197H173Z" fill="black"/>
<path fill-rule="evenodd" clip-rule="evenodd" d="M188 197V188H197V197H188Z" fill="black"/>
<path fill-rule="evenodd" clip-rule="evenodd" d="M204 197V188H212V197H204Z" fill="black"/>
<path fill-rule="evenodd" clip-rule="evenodd" d="M212 197V188H220V197H212Z" fill="black"/>
<path fill-rule="evenodd" clip-rule="evenodd" d="M220 197V188H227V197H220Z" fill="black"/>
<path fill-rule="evenodd" clip-rule="evenodd" d="M17 204V197H25V204H17Z" fill="black"/>
<path fill-rule="evenodd" clip-rule="evenodd" d="M63 204V197H72V204H63Z" fill="black"/>
<path fill-rule="evenodd" clip-rule="evenodd" d="M87 204V197H95V204H87Z" fill="black"/>
<path fill-rule="evenodd" clip-rule="evenodd" d="M95 204V197H103V204H95Z" fill="black"/>
<path fill-rule="evenodd" clip-rule="evenodd" d="M103 204V197H111V204H103Z" fill="black"/>
<path fill-rule="evenodd" clip-rule="evenodd" d="M126 204V197H134V204H126Z" fill="black"/>
<path fill-rule="evenodd" clip-rule="evenodd" d="M134 204V197H141V204H134Z" fill="black"/>
<path fill-rule="evenodd" clip-rule="evenodd" d="M165 204V197H173V204H165Z" fill="black"/>
<path fill-rule="evenodd" clip-rule="evenodd" d="M173 204V197H181V204H173Z" fill="black"/>
<path fill-rule="evenodd" clip-rule="evenodd" d="M204 204V197H212V204H204Z" fill="black"/>
<path fill-rule="evenodd" clip-rule="evenodd" d="M227 204V197H235V204H227Z" fill="black"/>
<path fill-rule="evenodd" clip-rule="evenodd" d="M235 204V197H244V204H235Z" fill="black"/>
<path fill-rule="evenodd" clip-rule="evenodd" d="M17 212V204H25V212H17Z" fill="black"/>
<path fill-rule="evenodd" clip-rule="evenodd" d="M32 212V204H40V212H32Z" fill="black"/>
<path fill-rule="evenodd" clip-rule="evenodd" d="M40 212V204H49V212H40Z" fill="black"/>
<path fill-rule="evenodd" clip-rule="evenodd" d="M49 212V204H56V212H49Z" fill="black"/>
<path fill-rule="evenodd" clip-rule="evenodd" d="M63 212V204H72V212H63Z" fill="black"/>
<path fill-rule="evenodd" clip-rule="evenodd" d="M80 212V204H87V212H80Z" fill="black"/>
<path fill-rule="evenodd" clip-rule="evenodd" d="M95 212V204H103V212H95Z" fill="black"/>
<path fill-rule="evenodd" clip-rule="evenodd" d="M103 212V204H111V212H103Z" fill="black"/>
<path fill-rule="evenodd" clip-rule="evenodd" d="M134 212V204H141V212H134Z" fill="black"/>
<path fill-rule="evenodd" clip-rule="evenodd" d="M150 212V204H157V212H150Z" fill="black"/>
<path fill-rule="evenodd" clip-rule="evenodd" d="M173 212V204H181V212H173Z" fill="black"/>
<path fill-rule="evenodd" clip-rule="evenodd" d="M181 212V204H188V212H181Z" fill="black"/>
<path fill-rule="evenodd" clip-rule="evenodd" d="M188 212V204H197V212H188Z" fill="black"/>
<path fill-rule="evenodd" clip-rule="evenodd" d="M197 212V204H204V212H197Z" fill="black"/>
<path fill-rule="evenodd" clip-rule="evenodd" d="M204 212V204H212V212H204Z" fill="black"/>
<path fill-rule="evenodd" clip-rule="evenodd" d="M220 212V204H227V212H220Z" fill="black"/>
<path fill-rule="evenodd" clip-rule="evenodd" d="M17 220V212H25V220H17Z" fill="black"/>
<path fill-rule="evenodd" clip-rule="evenodd" d="M32 220V212H40V220H32Z" fill="black"/>
<path fill-rule="evenodd" clip-rule="evenodd" d="M40 220V212H49V220H40Z" fill="black"/>
<path fill-rule="evenodd" clip-rule="evenodd" d="M49 220V212H56V220H49Z" fill="black"/>
<path fill-rule="evenodd" clip-rule="evenodd" d="M63 220V212H72V220H63Z" fill="black"/>
<path fill-rule="evenodd" clip-rule="evenodd" d="M80 220V212H87V220H80Z" fill="black"/>
<path fill-rule="evenodd" clip-rule="evenodd" d="M87 220V212H95V220H87Z" fill="black"/>
<path fill-rule="evenodd" clip-rule="evenodd" d="M95 220V212H103V220H95Z" fill="black"/>
<path fill-rule="evenodd" clip-rule="evenodd" d="M111 220V212H119V220H111Z" fill="black"/>
<path fill-rule="evenodd" clip-rule="evenodd" d="M119 220V212H126V220H119Z" fill="black"/>
<path fill-rule="evenodd" clip-rule="evenodd" d="M126 220V212H134V220H126Z" fill="black"/>
<path fill-rule="evenodd" clip-rule="evenodd" d="M141 220V212H150V220H141Z" fill="black"/>
<path fill-rule="evenodd" clip-rule="evenodd" d="M150 220V212H157V220H150Z" fill="black"/>
<path fill-rule="evenodd" clip-rule="evenodd" d="M173 220V212H181V220H173Z" fill="black"/>
<path fill-rule="evenodd" clip-rule="evenodd" d="M197 220V212H204V220H197Z" fill="black"/>
<path fill-rule="evenodd" clip-rule="evenodd" d="M212 220V212H220V220H212Z" fill="black"/>
<path fill-rule="evenodd" clip-rule="evenodd" d="M220 220V212H227V220H220Z" fill="black"/>
<path fill-rule="evenodd" clip-rule="evenodd" d="M227 220V212H235V220H227Z" fill="black"/>
<path fill-rule="evenodd" clip-rule="evenodd" d="M235 220V212H244V220H235Z" fill="black"/>
<path fill-rule="evenodd" clip-rule="evenodd" d="M17 228V220H25V228H17Z" fill="black"/>
<path fill-rule="evenodd" clip-rule="evenodd" d="M32 228V220H40V228H32Z" fill="black"/>
<path fill-rule="evenodd" clip-rule="evenodd" d="M40 228V220H49V228H40Z" fill="black"/>
<path fill-rule="evenodd" clip-rule="evenodd" d="M49 228V220H56V228H49Z" fill="black"/>
<path fill-rule="evenodd" clip-rule="evenodd" d="M63 228V220H72V228H63Z" fill="black"/>
<path fill-rule="evenodd" clip-rule="evenodd" d="M80 228V220H87V228H80Z" fill="black"/>
<path fill-rule="evenodd" clip-rule="evenodd" d="M95 228V220H103V228H95Z" fill="black"/>
<path fill-rule="evenodd" clip-rule="evenodd" d="M119 228V220H126V228H119Z" fill="black"/>
<path fill-rule="evenodd" clip-rule="evenodd" d="M126 228V220H134V228H126Z" fill="black"/>
<path fill-rule="evenodd" clip-rule="evenodd" d="M134 228V220H141V228H134Z" fill="black"/>
<path fill-rule="evenodd" clip-rule="evenodd" d="M157 228V220H165V228H157Z" fill="black"/>
<path fill-rule="evenodd" clip-rule="evenodd" d="M165 228V220H173V228H165Z" fill="black"/>
<path fill-rule="evenodd" clip-rule="evenodd" d="M173 228V220H181V228H173Z" fill="black"/>
<path fill-rule="evenodd" clip-rule="evenodd" d="M181 228V220H188V228H181Z" fill="black"/>
<path fill-rule="evenodd" clip-rule="evenodd" d="M188 228V220H197V228H188Z" fill="black"/>
<path fill-rule="evenodd" clip-rule="evenodd" d="M197 228V220H204V228H197Z" fill="black"/>
<path fill-rule="evenodd" clip-rule="evenodd" d="M204 228V220H212V228H204Z" fill="black"/>
<path fill-rule="evenodd" clip-rule="evenodd" d="M212 228V220H220V228H212Z" fill="black"/>
<path fill-rule="evenodd" clip-rule="evenodd" d="M220 228V220H227V228H220Z" fill="black"/>
<path fill-rule="evenodd" clip-rule="evenodd" d="M227 228V220H235V228H227Z" fill="black"/>
<path fill-rule="evenodd" clip-rule="evenodd" d="M17 235V228H25V235H17Z" fill="black"/>
<path fill-rule="evenodd" clip-rule="evenodd" d="M63 235V228H72V235H63Z" fill="black"/>
<path fill-rule="evenodd" clip-rule="evenodd" d="M80 235V228H87V235H80Z" fill="black"/>
<path fill-rule="evenodd" clip-rule="evenodd" d="M87 235V228H95V235H87Z" fill="black"/>
<path fill-rule="evenodd" clip-rule="evenodd" d="M95 235V228H103V235H95Z" fill="black"/>
<path fill-rule="evenodd" clip-rule="evenodd" d="M111 235V228H119V235H111Z" fill="black"/>
<path fill-rule="evenodd" clip-rule="evenodd" d="M119 235V228H126V235H119Z" fill="black"/>
<path fill-rule="evenodd" clip-rule="evenodd" d="M173 235V228H181V235H173Z" fill="black"/>
<path fill-rule="evenodd" clip-rule="evenodd" d="M181 235V228H188V235H181Z" fill="black"/>
<path fill-rule="evenodd" clip-rule="evenodd" d="M197 235V228H204V235H197Z" fill="black"/>
<path fill-rule="evenodd" clip-rule="evenodd" d="M212 235V228H220V235H212Z" fill="black"/>
<path fill-rule="evenodd" clip-rule="evenodd" d="M227 235V228H235V235H227Z" fill="black"/>
<path fill-rule="evenodd" clip-rule="evenodd" d="M17 244V235H25V244H17Z" fill="black"/>
<path fill-rule="evenodd" clip-rule="evenodd" d="M25 244V235H32V244H25Z" fill="black"/>
<path fill-rule="evenodd" clip-rule="evenodd" d="M32 244V235H40V244H32Z" fill="black"/>
<path fill-rule="evenodd" clip-rule="evenodd" d="M40 244V235H49V244H40Z" fill="black"/>
<path fill-rule="evenodd" clip-rule="evenodd" d="M49 244V235H56V244H49Z" fill="black"/>
<path fill-rule="evenodd" clip-rule="evenodd" d="M56 244V235H63V244H56Z" fill="black"/>
<path fill-rule="evenodd" clip-rule="evenodd" d="M63 244V235H72V244H63Z" fill="black"/>
<path fill-rule="evenodd" clip-rule="evenodd" d="M80 244V235H87V244H80Z" fill="black"/>
<path fill-rule="evenodd" clip-rule="evenodd" d="M111 244V235H119V244H111Z" fill="black"/>
<path fill-rule="evenodd" clip-rule="evenodd" d="M126 244V235H134V244H126Z" fill="black"/>
<path fill-rule="evenodd" clip-rule="evenodd" d="M134 244V235H141V244H134Z" fill="black"/>
<path fill-rule="evenodd" clip-rule="evenodd" d="M141 244V235H150V244H141Z" fill="black"/>
<path fill-rule="evenodd" clip-rule="evenodd" d="M150 244V235H157V244H150Z" fill="black"/>
<path fill-rule="evenodd" clip-rule="evenodd" d="M165 244V235H173V244H165Z" fill="black"/>
<path fill-rule="evenodd" clip-rule="evenodd" d="M197 244V235H204V244H197Z" fill="black"/>
<path fill-rule="evenodd" clip-rule="evenodd" d="M204 244V235H212V244H204Z" fill="black"/>
<path fill-rule="evenodd" clip-rule="evenodd" d="M212 244V235H220V244H212Z" fill="black"/>
<path fill-rule="evenodd" clip-rule="evenodd" d="M220 244V235H227V244H220Z" fill="black"/>
</svg>
